<?xml version="1.0" standalone="no"?>
<!DOCTYPE svg PUBLIC "-//W3C//DTD SVG 1.1//EN" "http://www.w3.org/Graphics/SVG/1.1/DTD/svg11.dtd" >
<svg xmlns="http://www.w3.org/2000/svg" xmlns:xlink="http://www.w3.org/1999/xlink" version="1.1">
<metadata></metadata>
<defs>
<font id="valuableregular" horiz-adv-x="1139" >
<font-face units-per-em="2048" ascent="1638" descent="-410" />
<missing-glyph horiz-adv-x="569" />
<glyph horiz-adv-x="0" />
<glyph unicode="&#xd;" horiz-adv-x="569" />
<glyph unicode=" "  horiz-adv-x="569" />
<glyph unicode="&#x09;" horiz-adv-x="569" />
<glyph unicode="&#xa0;" horiz-adv-x="569" />
<glyph unicode="!" horiz-adv-x="552" d="M30 156q0 72 132 132l52 8h24q112 -13 112 -92q0 -119 -184 -156h-16q-83 0 -116 72zM114 528q0 112 88 504l8 96v8q0 120 -64 120l-16 -4h-4v8q189 102 292 112q100 0 100 -80l4 -4v-4q0 -111 -84 -488l-12 -120q0 -124 76 -124h4q-73 -55 -208 -100q-58 -16 -96 -16 q-88 0 -88 92z" />
<glyph unicode="&#x22;" horiz-adv-x="408" d="M30 1280v12q0 63 100 80q64 -9 64 -64v-20q0 -65 -112 -108h-4v4l52 56v12l-32 -8h-8q-41 0 -60 36zM214 1280v12q0 63 100 80q64 -9 64 -64v-20q0 -65 -112 -108h-4v4q5 13 52 56v12l-32 -8h-8q-41 0 -60 36z" />
<glyph unicode="#" horiz-adv-x="1216" d="M30 460v4q0 52 48 124q0 -20 84 -24v4l48 260h-4l-56 -4h-4q-40 0 -40 32v16q7 43 40 112h4q18 -17 84 -24l24 164q0 128 -60 128h-24v8q211 112 288 112q104 0 104 -80v-28q0 -99 -48 -304h8q264 0 264 20q12 45 20 156q-9 116 -56 116h-28v8q179 98 292 112 q100 -9 100 -76v-32q0 -91 -40 -276l4 4h72q32 0 32 -32q0 -57 -48 -128h-4q0 16 -84 24l-52 -264h8l76 4q18 -7 28 -24v-12q0 -45 -44 -128h-8q0 19 -80 24q-20 -103 -20 -172q0 -120 72 -120l12 4v-8q-201 -112 -308 -112q-84 12 -84 76v44q0 67 44 288h-4 q-150 0 -268 -12q-16 -93 -16 -160q0 -120 72 -120l12 4v-8q-202 -112 -308 -112q-88 12 -88 88q0 61 40 292h-32l-36 -4q-36 6 -36 36zM442 560l272 12l56 284h-4l-272 -12l-24 -132l4 -4q-9 0 -32 -148z" />
<glyph unicode="$" horiz-adv-x="1088" d="M30 140q0 81 104 112l208 36q0 -80 44 -120h4q10 0 40 256q56 344 56 416q-247 0 -304 76l-8 20q24 181 52 232q28 98 96 144q117 52 244 52l8 56q0 64 -40 64v8q99 52 144 52h16q36 0 36 -48q0 -41 -16 -128h4l4 4h4q328 0 328 -80l4 -20v-28q0 -80 -132 -104l-176 -28 q-13 120 -60 120v-4l-36 -244h36q224 0 272 -60q36 -36 36 -116q0 -170 -88 -480q-81 -201 -192 -260q-68 -32 -196 -32l-4 -4v-20q3 -68 20 -68h20v-8q-109 -56 -156 -56q-40 11 -40 40v12l8 92h-88q-210 0 -244 88zM474 1036q0 -35 28 -52h12v4l24 176q-54 -53 -64 -120 v-8zM550 244q45 31 108 228q28 149 28 232q-6 120 -56 120v-4z" />
<glyph unicode="%" horiz-adv-x="1008" d="M30 1024q0 86 144 140l36 4h28q112 -12 112 -100q0 -90 -156 -144l-48 -4q-116 14 -116 104zM110 108q0 71 392 908q52 133 52 188q-11 48 -28 48h-32v8q242 112 320 112q84 0 84 -64q0 -71 -276 -640q-168 -363 -168 -452q0 -52 52 -52l12 4v-8q-236 -112 -340 -112 q-68 9 -68 60zM114 1028q0 -32 44 -40h24q62 0 84 68v16q-16 32 -52 32h-16q-63 0 -84 -68v-8zM658 344q0 103 164 152h56q100 -19 100 -88v-16q0 -96 -176 -144h-20q-124 17 -124 96zM742 352q12 -36 52 -36h8q75 0 96 68q-9 48 -48 48h-12q-96 -10 -96 -76v-4z" />
<glyph unicode="&#x26;" horiz-adv-x="1116" d="M30 128v28q0 103 88 500q0 148 104 248q-48 36 -48 88q24 153 76 256q42 63 124 88q133 36 368 36q256 0 296 -60q12 -19 12 -44q-19 -259 -56 -300q-43 -79 -172 -120l-212 -56l148 -204l24 68l-16 20v12q107 36 180 36h48q51 0 92 -28q-25 -124 -152 -344 q124 -158 124 -176v-8q0 -63 -220 -140l-16 -4v8q0 22 -44 104q-99 -96 -196 -96q-156 -16 -272 -16q-227 0 -276 84zM330 208q0 -40 96 -40q65 0 200 192l-208 288q-31 0 -76 -304zM466 1032q13 -56 52 -56q176 5 176 36q28 22 44 108q0 116 -80 116q-100 0 -184 -152z" />
<glyph unicode="'" horiz-adv-x="228" d="M30 1300q33 72 104 72q55 0 64 -68q0 -85 -112 -124h-4v8l52 56v4l-44 -4q-60 7 -60 56z" />
<glyph unicode="(" horiz-adv-x="740" d="M30 164q0 386 216 920q212 452 364 452q51 0 100 -48v-4h-16q-166 0 -396 -712q-116 -424 -116 -656q9 -172 64 -172h20v-8q-100 -52 -136 -52q-60 0 -76 84q-24 100 -24 196z" />
<glyph unicode=")" horiz-adv-x="740" d="M30 -68q208 0 444 832q84 328 84 528v16q0 123 -44 160l-24 8h-12v8q93 48 120 48h28q63 0 80 -192l4 -76v-16q0 -374 -204 -888q-216 -476 -376 -476q-52 0 -100 48z" />
<glyph unicode="*" horiz-adv-x="496" d="M30 1188v4q0 28 28 28h24l48 -4q-16 20 -40 20l-12 -4q0 65 48 108h4q21 0 88 -76l4 4v24q0 36 -24 36v8q65 31 92 36q36 -5 36 -28l-8 -72v-4h4l16 36l-4 16q108 -27 108 -64q0 -12 -68 -68h4q40 0 40 28h4q44 -59 44 -96v-12q-10 -20 -32 -20h-8l-56 4h-4v-4l32 -16h8 l12 4v-4q-19 -104 -60 -104q-61 47 -116 124q-61 -38 -84 -76v-8l4 -20q-108 27 -108 64q0 17 64 64h4v4h-8q-40 0 -40 -28q-44 58 -44 96z" />
<glyph unicode="+" horiz-adv-x="732" d="M30 776q12 36 56 36l224 -24v4l16 132v8q0 48 -36 48v8q99 52 144 52h12q31 0 40 -44l-36 -224h4l108 -12q68 0 68 44h4q68 -98 68 -152q0 -44 -56 -44l-224 24l-20 -128q0 -64 40 -64v-8q-99 -52 -144 -52h-24q-28 18 -28 44q0 40 36 228l-116 8q-68 -9 -68 -32l4 -4 v-12h-8q-64 106 -64 164z" />
<glyph unicode="," horiz-adv-x="220" d="M30 84v12q0 64 100 80q39 0 60 -36v-20q0 -55 -100 -72q-39 0 -60 36z" />
<glyph unicode="-" horiz-adv-x="728" d="M30 764v8q0 35 56 40l480 -52q64 8 64 36v4h4q64 -87 64 -144v-8q0 -35 -52 -40l-480 52q-68 0 -68 -44h-8q-60 102 -60 148z" />
<glyph unicode="." horiz-adv-x="569" />
<glyph unicode="/" horiz-adv-x="848" d="M30 104q0 79 324 760q120 263 120 340q-11 48 -28 48h-32v8q242 112 320 112q84 0 84 -64q0 -66 -300 -696q-144 -305 -144 -400q5 -48 44 -48l20 4v-8q-237 -112 -340 -112q-68 10 -68 56z" />
<glyph unicode="0" horiz-adv-x="1068" d="M30 128v28q0 87 120 712q44 269 96 372q36 67 128 96q131 36 364 36q226 0 280 -88q20 -47 20 -112q0 -161 -80 -620q-52 -214 -116 -340q-62 -106 -144 -144q-99 -44 -396 -44q-128 0 -240 40q-32 30 -32 64zM338 284q0 -120 64 -120q72 0 144 60q64 91 144 504 q36 210 36 364v40q0 104 -60 104q-108 0 -184 -140q-12 -20 -112 -572q-32 -169 -32 -240z" />
<glyph unicode="1" horiz-adv-x="636" d="M30 1244q0 43 48 120h4q0 -25 116 -28q247 20 304 36l16 -4h4l16 4q68 -29 68 -88q0 -94 -136 -768q-28 -175 -28 -236q0 -116 72 -116l12 4v-4q-192 -116 -304 -116q-88 13 -88 76v32q0 76 152 896l8 88q0 41 -20 88l-216 -24q-18 0 -28 40z" />
<glyph unicode="2" horiz-adv-x="1052" d="M30 140q0 45 416 532q296 366 296 444q0 103 -76 120h-20q-108 -6 -108 -44q-18 -35 -48 -52q-65 -28 -288 -28v4q28 135 96 188q70 60 328 60l88 4q308 0 308 -152v-16q-12 -213 -544 -948q-48 -67 -48 -84q75 0 164 76q97 44 292 44l4 -4q-11 -89 -96 -180 q-87 -68 -276 -68q0 -8 -212 -12q-276 0 -276 116z" />
<glyph unicode="3" horiz-adv-x="1072" d="M30 124v40q0 106 308 128q11 -120 68 -120q196 50 196 196l60 336v16q0 124 -64 124l-136 -24q-24 8 -24 32v20q0 25 40 108h8q0 -28 24 -28q204 32 204 100q20 44 20 64q0 120 -100 120q-98 0 -116 -68q-46 -48 -132 -48q0 -8 -192 -8v4q22 108 76 168q63 76 308 76 l128 4l20 4q316 0 316 -160q-16 -174 -48 -232l-44 -52q16 -20 24 -52l-64 -364q-24 -175 -56 -256q-61 -143 -168 -188q-150 -32 -372 -32h-48q-178 0 -228 76z" />
<glyph unicode="4" horiz-adv-x="1004" d="M30 1252v4q172 104 288 116q104 0 104 -92q0 -88 -44 -308q7 -20 36 -20q45 0 216 40l16 -4q16 77 16 124v36q-8 104 -52 104h-28v4q164 102 288 116q104 0 104 -92v-12q0 -89 -132 -744q-28 -163 -28 -224v-16q0 -120 72 -120l12 4v-8q-203 -112 -308 -112 q-88 12 -88 84q0 101 116 704q0 16 -44 20l-376 -72l-40 -4q-88 0 -88 56q40 241 40 292v8q-4 116 -56 116h-24z" />
<glyph unicode="5" horiz-adv-x="1092" d="M30 132v24q0 67 104 96q157 32 208 32v-4q0 -116 64 -116q61 0 136 68q72 96 84 168q32 45 52 232l4 84q0 120 -116 120q-384 11 -384 80l-12 16q23 177 40 204q48 122 48 156l36 76h8q0 -28 140 -28l60 -4q271 12 520 36q40 0 40 -44q0 -33 -44 -120h-8q0 28 -124 28 h-40q-260 0 -260 -28q-116 -83 -116 -172q5 -56 48 -56l4 -4l192 8q225 0 264 -88q16 -34 16 -80q0 -226 -108 -540q-103 -240 -332 -240q-150 -12 -252 -12h-24q-210 0 -244 88z" />
<glyph unicode="6" horiz-adv-x="1096" d="M30 140q0 98 152 856q33 219 96 276q77 92 324 92l156 8q304 0 304 -84l4 -20v-12q0 -66 -64 -96q-98 -31 -244 -48q-13 124 -76 124h-8q-99 0 -180 -144l-28 -120h4l232 12q228 0 276 -80l12 -36q0 -99 -84 -480l-16 -96l4 -4q-6 -64 -72 -160q-85 -92 -300 -92 q0 -7 -208 -12q-230 0 -276 84zM342 292q0 -128 64 -128q82 0 156 72q41 38 88 284q28 125 28 200q0 124 -68 124q-56 0 -140 -56q-74 -102 -96 -292q-24 -103 -32 -204z" />
<glyph unicode="7" horiz-adv-x="872" d="M30 1248q11 51 44 116h4q27 -24 104 -24h64l36 -4q452 23 452 36l24 -4h24l24 4q36 -9 36 -28q0 -149 -108 -372q-292 -601 -292 -744q0 -64 48 -64h16l20 4v-4q-191 -116 -304 -116q-88 12 -88 80v20q0 158 308 780q84 195 84 256v28l-8 24l-456 -32q-25 0 -32 44z" />
<glyph unicode="8" horiz-adv-x="1084" d="M30 136q0 122 84 496q12 111 32 164h4v4l-4 4v4q6 0 48 68l32 28q-28 0 -52 80q24 156 76 264q75 116 336 116l156 8q269 0 304 -68l8 -44q-31 -280 -56 -280q0 -9 -40 -56q15 0 28 -48q0 -126 -84 -496q-18 -165 -52 -204q-85 -124 -180 -124q-29 -16 -348 -28h-16 q-236 0 -272 92zM330 212q0 -40 92 -44q106 0 168 120q84 285 84 420v32q0 104 -64 104q-176 -29 -176 -84q-36 -109 -80 -340q-20 -133 -20 -188v-16zM466 1040q8 -64 56 -64q172 0 172 36q44 47 44 112q0 112 -80 112q-96 0 -180 -148z" />
<glyph unicode="9" horiz-adv-x="1076" d="M30 148q0 79 88 108q178 36 220 36q15 -120 68 -120q77 8 156 80q36 37 64 236l68 356l-4 -4h-268q-252 0 -252 144q24 163 76 264q42 63 124 88q133 36 368 36l160 -8l44 8q104 0 104 -80v-28q0 -116 -96 -540q-62 -413 -112 -512q-63 -113 -144 -144q0 -23 -376 -36 h-52q-191 0 -228 84zM462 1032q0 -56 72 -56h52q98 0 124 60q24 53 24 88q0 112 -80 112q-86 0 -168 -124q-24 -41 -24 -80z" />
<glyph unicode=":" horiz-adv-x="296" d="M30 472v24q0 48 88 68h12q60 -7 60 -48q0 -56 -88 -76h-20q-32 0 -52 32zM102 892q32 72 104 72q60 -11 60 -52q-19 -76 -108 -76q-56 12 -56 56z" />
<glyph unicode=";" horiz-adv-x="300" d="M30 492q28 72 92 72h12q59 0 64 -72q0 -74 -108 -116h-8v4l48 52l4 12h-4l-24 -4h-20q-56 0 -56 52zM106 888q0 56 104 76q60 -9 60 -56q-31 -72 -96 -72h-8q-60 8 -60 52z" />
<glyph unicode="&#x3c;" horiz-adv-x="980" d="M30 708q488 455 488 480q20 32 20 52v4l-8 8h-28v8q195 78 388 112q60 -7 60 -24q0 -62 -308 -332l-332 -308q205 -294 384 -484q81 -60 124 -60l12 4v-4q-89 -116 -200 -116q-134 0 -336 300z" />
<glyph unicode="=" horiz-adv-x="792" d="M30 632q0 44 60 44l480 -48q64 0 64 44q57 -77 68 -144v-8q0 -33 -28 -44h-48l-392 44l-60 4q-72 0 -72 -40v-4h-8q-64 114 -64 152zM94 884v20q0 35 52 40l484 -52q64 0 64 44q52 -60 68 -140v-16q0 -35 -52 -40l-480 52q-68 0 -68 -44h-8q-60 107 -60 136z" />
<glyph unicode="&#x3e;" horiz-adv-x="964" d="M30 164v4l16 -4q126 0 564 496q48 43 48 52q-516 558 -516 620v16q0 17 64 24q76 0 368 -112v-8h-32q-7 0 -12 -20q0 -75 404 -516v-12q-321 -357 -568 -592q-93 -64 -164 -64q-105 0 -172 116z" />
<glyph unicode="?" horiz-adv-x="908" d="M30 1116q36 135 84 172q55 72 320 72l108 4l24 4q312 0 312 -156q0 -223 -112 -288q-69 -32 -136 -44l-24 -196v-8q0 -124 72 -124l12 4v-8q-205 -112 -308 -112q-88 9 -88 80v24q0 126 76 420q0 15 128 28q68 47 68 108l4 4l4 12q0 67 -48 116l-52 8q-88 0 -112 -52 q0 -59 -188 -68l-140 -4zM210 140v12q0 88 148 140l40 4h16q116 -11 116 -100q0 -88 -152 -144l-48 -4q-120 16 -120 92z" />
<glyph unicode="@" horiz-adv-x="1428" d="M30 184v4q0 173 116 668q28 252 76 320q61 115 228 172q300 44 532 44q188 0 368 -56q48 -42 48 -92v-16q0 -180 -120 -688q-28 -181 -76 -236q-78 -76 -224 -76h-96q-37 0 -60 16q-209 -16 -312 -16q-276 0 -276 116q0 113 88 508q11 225 176 296q46 25 396 40 q110 0 252 -32q48 -24 48 -84v-12q0 -105 -84 -476l-12 -120q5 -76 28 -76q39 0 52 192q100 408 100 564q0 66 -64 92q-144 32 -248 32h-48q-429 0 -528 -84q-78 -57 -108 -156q-15 -46 -44 -252q-88 -353 -88 -500q0 -107 244 -128l92 -4q403 16 728 40l4 -4 q0 -60 -72 -116q0 -21 -452 -36l-260 -4q-298 0 -384 100q-20 37 -20 60zM546 472q0 -104 64 -104q80 0 156 72q48 56 104 376l12 100q0 128 -60 128h-12q-142 0 -192 -156q-72 -273 -72 -388v-28z" />
<glyph unicode="A" horiz-adv-x="1012" d="M30 120q0 303 160 828q79 227 204 364q68 60 224 60h12q104 0 140 -36q136 -141 136 -724l-8 -356q0 -116 72 -116l12 4v-8q-203 -112 -308 -112q-88 12 -88 84l48 540l12 192q0 12 -28 16l-172 -36l-16 8q-68 -294 -68 -524q0 -160 64 -160v-8q-207 -112 -308 -112 q-88 0 -88 96zM466 972q8 -18 16 -20h4q31 0 156 36q-18 149 -56 200l-12 8q-37 -7 -104 -212z" />
<glyph unicode="B" horiz-adv-x="1084" d="M30 140q0 95 152 868l12 132q-9 112 -56 112h-28v8q187 102 292 112q51 -5 68 -16l276 16q296 -9 296 -64q9 0 12 -44q-25 -292 -60 -292l-32 -44q24 -28 28 -60q0 -100 -84 -484q-30 -208 -56 -208q0 -30 -104 -104q-50 -28 -288 -44l-144 -4q-224 0 -272 80zM334 212 q0 -44 88 -44q98 0 164 104q92 295 92 448q0 124 -64 124q-113 -18 -156 -48q-36 0 -112 -456zM458 972h4q236 7 236 40q28 22 44 108q0 116 -80 116q-94 0 -176 -136z" />
<glyph unicode="C" horiz-adv-x="1092" d="M30 144q0 129 188 1032q52 120 140 152q0 28 388 44h8q256 0 296 -60q12 -14 12 -40v-28q0 -80 -132 -104l-176 -28q-11 124 -72 124h-12q-99 0 -180 -148q-148 -670 -148 -788v-20q0 -116 64 -116q77 0 196 88q101 36 284 36l4 -4q-32 -135 -104 -184q-81 -64 -264 -64 q0 -7 -212 -12q-280 0 -280 120z" />
<glyph unicode="D" horiz-adv-x="1072" d="M30 140l4 20q0 89 124 728q36 177 36 256q-8 108 -60 108h-24v8q187 102 292 112q51 -5 68 -16q166 16 276 16q227 0 272 -88q24 -39 24 -96q-46 -599 -132 -816q-69 -221 -184 -292q-91 -56 -420 -56q-141 0 -248 44q-24 30 -24 72h-4zM342 280q8 -112 56 -112l4 -4h4 q66 0 140 56q65 78 152 532q32 202 32 352v32q0 100 -68 100q-103 0 -180 -148q-140 -668 -140 -808z" />
<glyph unicode="E" horiz-adv-x="1092" d="M30 140q0 133 188 1036q51 116 132 148q0 22 256 44l148 4q256 0 296 -60q12 -14 12 -40v-28q0 -80 -132 -104l-176 -28q-11 124 -72 124h-12q-94 0 -176 -140q-28 -83 -28 -120q0 -24 24 -24l156 36h16q32 0 32 -32q0 -40 -40 -124h-8q0 24 -32 24l-164 -36l-20 4 q-88 -456 -88 -536v-8q0 -116 64 -116q78 0 196 88q101 36 284 36l4 -4q-32 -135 -104 -184q-81 -64 -264 -64q0 -7 -212 -12q-280 0 -280 116z" />
<glyph unicode="F" horiz-adv-x="1088" d="M30 140q0 93 156 916l4 60v20q0 116 -56 116h-24v4q161 100 288 116q51 -5 68 -16l280 16q269 0 304 -68l8 -44q0 -75 -76 -104q-94 -28 -236 -44q0 81 -48 120l-36 4q-84 0 -164 -120q-23 -33 -40 -140q4 -24 36 -24q46 0 216 40q20 0 36 -24v-28q0 -26 -40 -108h-8 q0 24 -44 24l-216 -36l-12 4q-84 -421 -84 -520v-24q0 -116 72 -116l12 4v-8q-207 -112 -308 -112q-82 0 -88 92z" />
<glyph unicode="G" horiz-adv-x="1096" d="M30 140q0 101 168 936q0 93 88 204q78 80 268 80q0 5 204 12q308 0 308 -92v-24q0 -68 -72 -100q-102 -28 -236 -44q-14 124 -76 124h-8q-99 0 -180 -144q-24 -81 -96 -448l4 -4v-4q-60 -270 -60 -344q0 -128 64 -128q82 0 156 72q47 49 108 380l8 96q0 112 -60 112l-4 4 l-76 -8q-28 10 -28 40q0 28 44 124h8q0 -32 68 -32q55 0 340 36h8q32 -22 32 -68q-12 -100 -108 -552q-12 -125 -40 -180q-46 -91 -160 -132q-188 -32 -388 -32q-230 0 -276 84z" />
<glyph unicode="H" horiz-adv-x="1088" d="M30 136q0 81 156 916l8 76q-6 124 -60 124h-24v8q211 112 288 112q104 -9 104 -72v-32q0 -71 -40 -296v-4q4 -16 40 -16l208 36h20l16 152q0 79 -44 112h-40v8q187 102 292 112q104 -7 104 -88q0 -93 -136 -768q-28 -175 -28 -236q0 -116 72 -116l12 4v-4 q-190 -116 -308 -116q-84 15 -84 76v32q0 75 112 680v4q0 12 -40 16l-220 -36l-12 4q-84 -433 -84 -544q0 -116 72 -116l12 4v-8q-201 -112 -308 -112q-88 12 -88 88z" />
<glyph unicode="I" horiz-adv-x="532" d="M30 124v32q0 76 152 896l8 88q0 79 -44 112h-40v8q187 102 292 112q104 -7 104 -88q0 -93 -136 -768q-28 -175 -28 -236q0 -116 72 -116l12 4v-4q-192 -116 -304 -116q-88 13 -88 76z" />
<glyph unicode="J" horiz-adv-x="1076" d="M30 124v40q0 86 180 112l128 16q11 -120 64 -120h4q75 0 168 100q24 38 104 508q56 264 56 360q-7 112 -56 112h-28v8q190 102 292 112q104 0 104 -88q0 -99 -128 -732q-33 -259 -100 -372q-74 -136 -288 -136q-82 -12 -216 -12h-48q-197 0 -236 92z" />
<glyph unicode="K" horiz-adv-x="1088" d="M30 136q0 81 156 916l8 76q-6 124 -60 124h-24v8q211 112 288 112q104 -9 104 -72v-32q0 -71 -40 -296v-4q4 -16 40 -16q192 27 192 52q52 21 52 128v16q0 92 -56 104h-28v8q187 102 292 112q104 -7 104 -88q0 -194 -88 -256q-45 -32 -64 -32v-4q54 -23 64 -136v-28 q0 -41 -72 -476l-4 -72q0 -116 72 -116l12 4v-4q-190 -116 -308 -116q-84 13 -84 76v28q0 86 112 680v8q0 12 -40 16l-220 -36l-12 4q-84 -434 -84 -540q0 -120 72 -120l12 4v-8q-201 -112 -308 -112q-88 12 -88 88z" />
<glyph unicode="L" horiz-adv-x="920" d="M30 128q0 113 144 856q16 82 16 140v12q0 116 -56 116h-24v4q164 102 288 116q104 0 104 -92q-52 -449 -124 -776q-40 -143 -40 -200v-28q11 -108 80 -108h16q57 0 176 88q93 28 224 28h24l28 4l4 -4v-4q-7 -82 -92 -172q-81 -84 -476 -84q-144 0 -260 40q-29 29 -32 64z " />
<glyph unicode="M" horiz-adv-x="1568" d="M30 116q0 310 160 832q149 416 340 416l100 8q104 0 128 -40q46 -76 72 -188h4q103 224 280 224l72 4q106 0 128 -40q44 -66 76 -200q68 -349 68 -724l-4 -152q0 -116 72 -116l12 4v-8q-202 -112 -308 -112q-88 12 -88 84q60 621 60 752v20q0 250 -72 316 q-67 -57 -128 -304q-84 -339 -84 -588q0 -160 64 -160v-8q-203 -112 -308 -112q-88 0 -88 96l56 604l4 156q0 241 -72 316q-47 0 -144 -356q-68 -317 -68 -540q0 -156 64 -156v-8q-208 -112 -308 -112q-88 0 -88 92z" />
<glyph unicode="N" horiz-adv-x="1084" d="M30 124v44q19 181 152 876l8 88q0 120 -60 120h-24v8q179 98 292 112q76 0 140 -96q159 -165 192 -228h4l8 92q-8 112 -56 112h-28v8q189 102 292 112q80 0 100 -60l4 -28q0 -94 -132 -752q-24 -129 -32 -248q0 -120 72 -120l12 4v-4q-191 -116 -304 -116q-88 12 -88 80 v24q0 96 128 748q-87 141 -212 268h-8l-124 -648q-28 -176 -28 -240q0 -116 72 -116l12 4v-8q-201 -112 -308 -112q-84 13 -84 76z" />
<glyph unicode="O" horiz-adv-x="1068" d="M30 140q0 97 148 852q15 139 88 276q62 62 152 80q163 24 328 24q292 0 292 -160v-60q-42 -547 -120 -748q-65 -242 -192 -324q-93 -56 -420 -56q-142 0 -248 44q-25 32 -28 72zM342 284q0 -120 64 -120q71 0 136 56q58 54 144 464q44 257 44 428v12q0 112 -72 112 q-91 0 -172 -136q-15 -43 -36 -176q-108 -502 -108 -640z" />
<glyph unicode="P" horiz-adv-x="1092" d="M30 128v24q0 78 156 916l4 72q-8 112 -56 112h-28v8q189 102 292 112l12 -4q126 20 364 28q288 0 288 -112v-20q0 -102 -80 -460q-17 -149 -52 -216q-75 -140 -328 -140q-64 -12 -236 -12h-12l-16 -148q0 -124 72 -124l12 4v-4q-191 -116 -304 -116q-88 12 -88 80z M410 628q0 -48 88 -48q101 0 164 108q92 295 92 448q-9 120 -60 120q-84 0 -156 -68q-38 -37 -72 -184q-56 -262 -56 -376z" />
<glyph unicode="Q" horiz-adv-x="1072" d="M30 140l4 20q0 92 140 812q28 179 84 284q43 63 164 92q155 24 324 24q227 0 272 -88q24 -42 24 -92q0 -215 -92 -688q-59 -220 -128 -332l-4 -4v-4q56 -63 56 -92v-4q-30 -44 -148 -44h-4v4l8 12l-8 36q-103 -52 -416 -52q-141 0 -248 44q-24 30 -24 72h-4zM342 280 q8 -112 56 -112l4 -4h4q66 0 140 56l40 76q-136 177 -136 196v12q29 44 140 44h8l-4 -20v-4q0 -25 32 -84h4q100 392 100 664v32q0 100 -68 100q-105 0 -184 -156q-136 -673 -136 -800z" />
<glyph unicode="R" horiz-adv-x="1096" d="M30 132q0 99 156 920l4 60v36q-8 104 -52 104h-28v4q197 116 292 116l12 -4q119 20 364 28q288 0 288 -124q0 -91 -84 -480q-20 -165 -56 -212l-36 -48q32 -22 32 -60v-8l-16 -200v-4q0 -92 68 -92l16 4v-8q-204 -112 -308 -112q-88 11 -88 80v16l16 180v24q0 56 -36 92 q-77 -8 -200 -8h-20v-4l-12 -140v-8q0 -120 72 -120l12 4v-8q-203 -112 -308 -112q-88 12 -88 84zM410 612q21 -32 76 -32q147 0 196 156q72 276 72 392v8q0 120 -64 120q-136 -30 -136 -56q-39 0 -92 -224q-52 -251 -52 -352v-12z" />
<glyph unicode="S" horiz-adv-x="1088" d="M30 136v16q0 68 92 96q124 32 220 32q0 -116 64 -116q85 16 120 52q156 181 156 496q0 90 -48 112q0 10 -288 24q-164 29 -164 68l-8 8h-4q0 46 32 184h4v4l-4 4v4q10 0 28 76q41 100 132 136q146 40 384 40q259 0 296 -60q11 0 16 -56q0 -73 -84 -104q-98 -24 -224 -40 l-16 76q-19 48 -72 48q-89 0 -172 -132l-16 -56v-24q0 -34 48 -48l192 8q231 0 268 -92q12 -37 12 -68v-16q0 -221 -108 -536q-106 -232 -308 -232q-132 -16 -276 -16h-32q-191 0 -236 84z" />
<glyph unicode="T" horiz-adv-x="872" d="M30 1228v16q0 36 40 120h4q30 -24 104 -24h64l40 -4l36 4h48l132 32q52 -4 76 -20l228 20q36 0 40 -44q0 -26 -44 -120h-8q0 28 -124 28h-68v-4q-15 -153 -128 -696q-28 -181 -28 -232v-24q0 -116 64 -116l20 4v-8q-207 -112 -308 -112q-88 10 -88 88q0 98 156 920l4 60 v20q0 41 -12 84l-220 -16q-18 7 -28 24z" />
<glyph unicode="U" horiz-adv-x="1080" d="M30 128v24q0 78 156 916l4 72q-8 112 -56 112h-28v8q189 102 292 112q80 0 100 -60l4 -24q-68 -560 -152 -900q-16 -41 -16 -100q0 -108 84 -120h12q64 0 160 80q152 839 152 876q0 128 -60 128h-24v8q211 112 288 112q104 0 104 -80v-28q0 -86 -116 -664 q-44 -219 -44 -316q0 -120 72 -120l12 4v-8q-198 -124 -452 -124q-100 -12 -204 -12q-232 8 -272 56q-16 27 -16 48z" />
<glyph unicode="V" horiz-adv-x="1012" d="M30 1252v8q179 98 292 112q104 -8 104 -88l-96 -792q-12 -100 -12 -200q8 -124 32 -124h8q87 0 248 592q52 232 52 368v20q0 108 -60 108l-12 -4v8q189 102 292 112q80 0 100 -60l4 -28q0 -314 -212 -892q-157 -360 -336 -360q-41 -8 -108 -8q-170 0 -216 148 q-40 132 -40 308v44q0 184 44 616v8q-8 104 -52 104h-32z" />
<glyph unicode="W" horiz-adv-x="1568" d="M30 1252v8q179 98 288 112q104 0 104 -80q0 -96 -92 -784q-12 -121 -12 -224q8 -116 32 -116h8q86 0 244 580q56 232 56 396q0 108 -48 108h-24v8q185 100 292 112q100 0 100 -80l4 -4v-4q-8 -113 -96 -784l-12 -196q7 -136 32 -136h8q85 0 236 548q64 249 64 408v28 q0 104 -60 104l-12 -4v8q190 102 292 112q104 0 104 -88q0 -319 -212 -892q-157 -364 -344 -364l-96 -4q-148 0 -196 96q-26 68 -32 68q-96 -160 -252 -160l-80 -4q-158 0 -208 124q-48 143 -48 312v76q0 173 44 608v8q0 83 -52 100h-32z" />
<glyph unicode="X" horiz-adv-x="1084" d="M30 124v40q0 85 112 648q54 128 108 128v4q-72 28 -72 88l12 108q0 116 -68 116l-16 -4v8q185 100 292 112q100 0 100 -80l4 -4v-4q0 -70 -44 -312q0 -20 40 -20q84 0 192 48q52 30 52 120v40q-9 92 -56 92h-28v8q190 102 292 112q104 0 104 -88q0 -246 -148 -288h-4v-4 q37 0 64 -112v-60q0 -40 -68 -452l-8 -68q0 -136 68 -136l20 4v-8q-210 -112 -308 -112q-88 9 -88 88v8q0 101 116 692q0 17 -48 20l-212 -36l-12 4q-88 -421 -88 -544q0 -116 72 -116l12 4v-4q-192 -116 -304 -116q-88 13 -88 76z" />
<glyph unicode="Y" horiz-adv-x="1076" d="M30 124v40q0 106 308 128q11 -120 68 -120q75 0 164 96q22 0 72 324l48 244q0 17 -48 20l-220 -36q-195 0 -244 148q-7 0 -8 48v8l12 116q0 116 -68 116l-16 -4v8q187 102 292 112q100 0 100 -80l4 -4v-4q0 -71 -44 -312q0 -20 40 -20l208 36h20q16 92 16 144 q-4 120 -56 120h-28v8q190 102 292 112q104 0 104 -88q0 -99 -128 -732q-34 -262 -100 -372q-75 -136 -284 -136q-93 -12 -220 -12h-48q-197 0 -236 92z" />
<glyph unicode="Z" horiz-adv-x="1068" d="M30 128v16q12 62 460 616q256 337 256 432q0 32 -60 32l-44 4l-376 -28q-20 0 -36 24v28q0 26 40 108h4q29 -24 100 -24h84l20 -4l24 4q110 0 508 36q23 0 28 -44v-24q0 -302 -528 -1004q-71 -100 -84 -132h4q72 0 176 84q111 36 276 36l4 -4v-4q-5 -79 -84 -164 q-69 -92 -492 -92q-226 0 -276 84z" />
<glyph unicode="[" horiz-adv-x="688" d="M30 -72q212 1446 212 1496v24q-8 36 -20 36h-20v8q109 52 136 52h36q0 -14 180 -44h8q21 0 28 20l-4 4v8h4q55 -73 68 -148q-7 -44 -40 -44q-63 7 -204 40q-32 0 -32 -24q-36 -212 -188 -1284q124 -28 160 -28q21 0 24 12v20h8q60 -106 60 -136v-20q-5 -36 -36 -36h-8 l-200 40h-4q-36 -28 -120 -44q-48 9 -48 48z" />
<glyph unicode="\" horiz-adv-x="712" d="M30 1252v4q164 116 256 116q88 0 120 -72q29 0 104 -728q40 -408 160 -408l12 4v-4q-156 -116 -272 -116q-120 0 -140 220q-84 673 -116 856q-43 128 -104 128h-20z" />
<glyph unicode="]" horiz-adv-x="688" d="M30 36q5 44 44 44l196 -36h32q36 212 188 1304h-4l-132 32q-44 -4 -44 -16v-20h-8q-60 104 -60 148v8q0 33 40 36v4l196 -40q81 41 116 44h28q31 0 36 -40l-84 -568q-128 -884 -128 -944v-4q6 -44 20 -44h20v-8q-113 -56 -152 -56q-176 44 -208 44q-17 -4 -28 -20l4 -4 v-12h-8q-64 110 -64 148z" />
<glyph unicode="^" horiz-adv-x="592" d="M30 1096v8q0 38 280 284q168 -217 220 -228h16l16 12v-8q-31 -164 -88 -164q-28 0 -180 184q-104 -91 -104 -136v-8l12 -16v-4q-172 23 -172 76z" />
<glyph unicode="_" horiz-adv-x="1140" d="M30 -76q0 53 48 124h4q0 -28 160 -28h60q237 0 784 36q24 -8 24 -32v-4q0 -49 -44 -124h-4q-27 24 -164 24h-60q-226 0 -780 -32q-28 0 -28 36z" />
<glyph unicode="`" horiz-adv-x="444" d="M30 1224q24 172 80 172h4q34 0 204 -200q46 -40 72 -40l20 12h4q-29 -172 -80 -172q-44 0 -176 172q-70 68 -96 68h-4q-20 0 -20 -12h-8z" />
<glyph unicode="a" horiz-adv-x="1020" d="M30 128v28q0 104 84 480q0 131 80 240q83 96 304 96q0 7 200 12q231 -9 268 -52q13 0 24 -56q0 -124 -88 -504l-8 -100v-24q0 -108 72 -108l12 4v-8q-202 -112 -308 -112l-60 16l-300 -16q-226 0 -276 84zM338 284q0 -120 64 -120q76 0 156 68q48 70 88 276 q28 141 28 212v4q0 116 -56 116l-4 4q-72 0 -144 -56q-49 -40 -92 -232q-40 -207 -40 -272z" />
<glyph unicode="b" horiz-adv-x="1016" d="M30 144q0 101 148 856l12 124v12q0 116 -56 116h-24v4q161 100 288 116q104 0 104 -92q0 -91 -44 -308h4l240 12q210 0 272 -72q12 -20 12 -40q0 -125 -88 -512q0 -182 -132 -272q-74 -52 -248 -52q0 -8 -212 -12q-130 0 -244 40q-32 29 -32 80zM342 280q0 -116 64 -116 q77 0 156 72q49 56 104 376l12 104q0 128 -68 128q-110 -19 -148 -64q-43 -51 -76 -200q-44 -206 -44 -284v-16z" />
<glyph unicode="c" horiz-adv-x="1020" d="M30 136q0 135 112 644q49 114 136 156q90 44 416 44q296 0 296 -88v-24q0 -101 -144 -120q-86 -20 -168 -20q0 116 -72 116h-8q-112 0 -188 -164q-72 -306 -72 -392q0 -124 68 -124q77 0 188 84q90 40 292 40l4 -4q-17 -81 -64 -144q-42 -64 -176 -96q-240 -20 -344 -20 q-236 0 -272 92z" />
<glyph unicode="d" horiz-adv-x="1092" d="M30 140q0 100 84 484q30 208 56 208q0 31 100 100q114 52 460 52q20 87 20 156q-9 112 -56 112h-28v8q179 98 292 112q104 -8 104 -88l-4 -20q0 -92 -72 -444q0 -60 -80 -432l-8 -108q0 -116 72 -116l12 4v-8q-195 -120 -412 -120q-120 -16 -256 -16q-230 0 -276 84z M342 284q0 -120 64 -120q82 0 156 72q68 119 68 212q48 225 48 272q0 124 -68 124q-98 -16 -144 -60q-48 -55 -88 -244q-36 -186 -36 -256z" />
<glyph unicode="e" horiz-adv-x="1024" d="M30 136q0 115 112 636q50 123 124 156q76 52 432 52q263 0 288 -68l8 -44q-34 -292 -60 -292q-39 -84 -144 -124q0 -19 -388 -36h-48l-12 -140q6 -112 64 -112q82 0 196 88q101 36 284 36l4 -4v-4q0 -57 -76 -156q-79 -88 -292 -88q0 -7 -208 -12q-228 0 -276 84z M402 608q0 -48 100 -48q111 0 148 76q28 56 28 96v4q0 93 -60 108h-28q-60 0 -136 -88q-52 -69 -52 -136v-12z" />
<glyph unicode="f" horiz-adv-x="1120" d="M30 860q0 28 44 124h8q0 -24 28 -24q0 -8 60 -8h20q53 224 104 304q71 100 272 100q0 6 228 12q235 0 284 -60l12 -52q0 -79 -88 -108q-98 -24 -224 -40q0 81 -48 120l-36 4q-95 0 -172 -136q-36 -91 -36 -116l84 12q32 0 40 -44q0 -23 -44 -120h-8q0 28 -104 28 q-96 -471 -96 -596q0 -120 76 -120h8q-190 -116 -304 -116q-92 9 -92 88l4 20v12q0 74 112 684h-4l-100 -8q-28 10 -28 40z" />
<glyph unicode="g" horiz-adv-x="1076" d="M30 -256q0 92 156 116q88 16 156 16q0 -103 64 -116q88 13 156 84q36 30 56 192l-252 -12q-234 0 -272 92l-4 20q0 121 84 496q16 150 56 212q78 128 328 128q0 7 208 12q134 0 248 -40q32 -30 32 -64v-28q0 -88 -136 -764q-34 -251 -92 -316q-65 -140 -284 -140 q-100 -12 -224 -12h-28q-252 0 -252 124zM398 288q0 -124 68 -124q58 0 136 52q56 46 100 264q32 160 32 228v32q0 104 -64 104q-77 0 -156 -72q-49 -55 -104 -384z" />
<glyph unicode="h" horiz-adv-x="1020" d="M30 112q0 81 156 916l8 72q0 128 -60 128h-24v8q203 108 280 108h36q76 -13 76 -72v-28q0 -85 -40 -284h4l200 12h92q199 0 224 -56l8 -36v-24q0 -106 -88 -496l-8 -100q0 -120 84 -120q-190 -116 -308 -116q-84 13 -84 76v32q0 105 76 444l16 136v8q0 124 -64 124 q-68 0 -172 -104q-31 -50 -84 -348q-20 -70 -20 -136q0 -116 76 -116l12 4v-8q-201 -112 -308 -112q-88 12 -88 88z" />
<glyph unicode="i" horiz-adv-x="548" d="M30 100v28q0 110 80 464l12 116v12q0 124 -68 124l-12 -4v4q192 116 304 116q88 -12 88 -80v-20q0 -109 -84 -484l-12 -112q0 -124 80 -124h4q-190 -116 -308 -116q-84 13 -84 76zM198 1168v16q0 63 100 120q44 24 100 24q120 -14 120 -92v-12q0 -80 -128 -132 q-26 -12 -64 -12h-4q-104 0 -124 88z" />
<glyph unicode="j" horiz-adv-x="1160" d="M30 -260q0 79 104 108q162 32 212 32v-4q0 -116 64 -116q116 30 156 88q28 0 92 400q80 391 80 476q0 120 -72 120l-12 -4v8q202 112 308 112q88 -13 88 -88l-4 -20q0 -94 -124 -704q-32 -245 -88 -356q-59 -102 -132 -132q0 -27 -396 -40h-24q-252 0 -252 120zM810 1172 q0 106 160 152l44 4q116 -17 116 -88v-8q0 -111 -172 -152h-24q-86 0 -120 68z" />
<glyph unicode="k" horiz-adv-x="1020" d="M30 100v36q0 74 152 888l8 92q-9 112 -56 112h-28v8q205 108 288 108h28q68 0 80 -88q-52 -421 -116 -704h4q205 0 260 96q28 50 28 76v4q0 116 -68 116l-12 -4v8q201 112 308 112q84 -15 84 -76v-36q0 -223 -108 -340q32 -18 32 -68l-16 -204v-4q0 -79 60 -92l24 4v-8 q-208 -112 -312 -112q-84 13 -84 80v20l16 184v16q-9 100 -64 100q-51 -3 -128 -40q-64 -67 -68 -124v-4q0 -116 64 -116l20 4v-8q-207 -112 -308 -112q-88 9 -88 76z" />
<glyph unicode="l" horiz-adv-x="532" d="M30 108q0 98 156 920l4 68v28q0 104 -64 104h-16v8q200 108 288 108h16q88 0 88 -88q0 -84 -96 -636q-68 -282 -68 -360q0 -120 84 -120q-82 -61 -232 -108l-72 -8q-88 11 -88 84z" />
<glyph unicode="m" horiz-adv-x="1576" d="M30 112q0 118 84 488l12 116q0 128 -72 128l-12 -4v8q208 112 308 112q40 -6 40 -12q142 24 284 24h88q126 0 180 -24q147 24 276 24h92q179 0 212 -40q16 -14 24 -60l-4 -20q0 -108 -80 -460l-16 -124q0 -128 76 -128l12 4v-8q-208 -112 -308 -112q-88 0 -88 92v4 q0 109 80 472l12 112v32q0 96 -60 108h-4q-77 -9 -168 -100q-28 -30 -88 -344q-16 -86 -16 -132v-8q0 -120 72 -120l12 4v-8q-201 -112 -308 -112q-88 10 -88 88q0 108 76 448q20 108 20 160q0 124 -64 124q-118 -30 -164 -96q-32 0 -108 -440v-60q0 -108 72 -108l12 4v-8 q-202 -112 -308 -112q-88 10 -88 88z" />
<glyph unicode="n" horiz-adv-x="1020" d="M30 112v16q0 108 80 464l12 116v16q0 120 -68 120l-12 -4v4q192 116 304 116q44 -6 44 -12q140 24 272 24h100q224 0 224 -80l4 -24q0 -98 -84 -476l-16 -124q0 -128 76 -128l12 4v-8q-208 -112 -308 -112q-88 9 -88 88v8q0 112 80 468l12 116v32q0 96 -60 108h-4 q-77 -9 -168 -100q-28 -39 -60 -224q-24 -61 -44 -248q0 -132 80 -132h4q-190 -116 -308 -116q-76 0 -84 88z" />
<glyph unicode="o" horiz-adv-x="1016" d="M30 140q0 106 92 524q0 195 168 276q0 28 412 44q227 0 276 -80l8 -32v-16q0 -104 -84 -484q-18 -158 -56 -208q-77 -128 -324 -128q0 -7 -212 -12q-204 0 -268 72zM342 272q0 -89 56 -108h8q81 0 156 72q44 53 88 284q28 140 28 200q0 124 -68 124q-111 -19 -152 -68 q-47 -69 -84 -256q-32 -161 -32 -232v-16z" />
<glyph unicode="p" horiz-adv-x="1096" d="M30 -272q0 96 156 920l4 60v12q0 124 -68 124l-16 -4v8q200 116 372 116q180 20 300 20q244 -1 284 -92l4 -24l-4 -20q0 -98 -80 -460q-23 -187 -68 -236q-75 -120 -368 -120q0 -8 -180 -8h-12l-12 -128v-40q0 -104 68 -104l12 4v-4q-165 -104 -300 -116q-92 0 -92 92z M418 284q0 -120 64 -120q82 0 156 72q33 29 72 208q44 188 44 276q0 124 -68 124q-98 -16 -144 -60q-48 -55 -88 -244q-36 -186 -36 -256z" />
<glyph unicode="q" horiz-adv-x="1020" d="M30 148q0 103 88 500q0 201 164 292q150 44 424 44q233 -11 268 -56l16 -52q0 -99 -132 -756q-32 -185 -32 -248q0 -120 72 -120l12 4v-4q-192 -116 -304 -116q-88 14 -88 80v24q0 88 44 296h-4l-252 -12q-276 0 -276 124zM342 268q0 -104 64 -104q77 0 156 72 q48 56 104 376l12 104q0 128 -68 128q-110 -19 -148 -64q-42 -46 -76 -200q-44 -206 -44 -284v-28z" />
<glyph unicode="r" horiz-adv-x="1020" d="M30 104v20q0 111 80 468l12 112v20q0 120 -68 120l-12 -4v8q201 112 308 112q40 -6 40 -12q144 24 272 24h100q224 0 224 -80l4 -24q0 -84 -104 -112l-208 -36q0 81 -44 120l-24 4q-126 -35 -164 -104q-25 0 -64 -220q-44 -176 -44 -252q0 -128 76 -128l12 4v-8 q-208 -112 -312 -112q-84 13 -84 80z" />
<glyph unicode="s" horiz-adv-x="1020" d="M30 148q0 90 156 116q88 16 156 16q10 -116 64 -116h4q109 26 160 92q28 44 28 72v24q0 72 -120 72q0 7 -292 16q-84 13 -84 76v40q0 141 92 312q61 104 348 104l144 4q296 0 296 -68l8 -44q0 -108 -216 -128l-96 -16q0 124 -76 124h-8q-76 0 -160 -124q-20 -46 -20 -64 q4 -16 24 -16h44l36 4q400 -31 400 -200v-36q0 -191 -176 -328q-93 -56 -436 -56h-24q-252 0 -252 124z" />
<glyph unicode="t" horiz-adv-x="940" d="M30 864q4 33 44 116h8q0 -28 88 -28h20q20 122 20 172v12q0 116 -56 116h-24v4q164 102 288 116q104 0 104 -92q0 -48 -40 -300l88 12q40 0 40 -44q0 -29 -44 -120h-8q0 28 -92 28q-44 -243 -104 -512v-60q0 -120 68 -120q77 0 192 88q101 36 284 36l4 -4v-4 q-7 -82 -92 -172q-81 -84 -476 -84q-144 0 -260 40q-32 31 -32 72q0 100 116 696l-108 -12q-19 0 -28 44z" />
<glyph unicode="u" horiz-adv-x="1016" d="M30 140q0 117 80 472l12 108q0 124 -72 124l-12 -4v4q191 116 304 116q82 0 88 -92v-4q0 -111 -76 -452q-12 -67 -12 -120v-24q0 -104 64 -104q76 0 164 84q24 0 68 232q36 146 36 228v12q0 124 -68 124l-12 -4v4q192 116 304 116q88 -12 88 -80v-20q0 -109 -84 -484 l-12 -116q0 -120 84 -120q-190 -116 -308 -116l-56 16l-192 -12h-76q-241 8 -280 40q-32 19 -32 72z" />
<glyph unicode="v" horiz-adv-x="1012" d="M30 840v8q203 112 308 112q88 -12 88 -88l-16 -352v-8q0 -225 100 -308q42 0 116 216q40 153 40 256v24q0 140 -60 140h-20v8q208 112 308 112q80 0 88 -92q0 -411 -196 -700q-110 -140 -296 -140h-40q-154 0 -208 108q-37 32 -96 208q-36 167 -36 280l4 92 q0 128 -72 128z" />
<glyph unicode="w" horiz-adv-x="1568" d="M30 840v8q203 112 308 112q88 -12 88 -88l-16 -352v-8q0 -225 100 -308q42 0 116 216q40 153 40 256v24q0 140 -60 140h-20v8q208 112 308 112q80 0 88 -92l-16 -356q0 -219 100 -308h4q74 59 128 276q24 114 24 184v48q0 128 -60 128h-20v8q210 112 308 112q82 0 88 -92 q0 -442 -216 -724q-100 -112 -252 -112l-52 -4h-12q-101 0 -140 32q-80 74 -84 100h-4q-100 -132 -300 -132h-28q-154 0 -208 108q-37 32 -96 208q-36 167 -36 280l4 92q0 128 -72 128z" />
<glyph unicode="x" horiz-adv-x="1024" d="M30 116q0 235 108 360q-16 0 -32 56l20 208q-9 104 -64 104l-16 -4h-4v8q203 112 308 112q78 0 88 -92l-20 -196q0 -112 68 -112q78 0 148 64q48 67 48 104q0 116 -68 116l-16 -4v8q208 112 308 112q80 0 88 -92q0 -234 -108 -360q15 0 28 -48v-28l-16 -192 q9 -100 64 -100h4l16 4v-8q-202 -112 -308 -112q-80 0 -88 92l20 192q0 102 -64 116h-4q-80 0 -152 -68q-44 -66 -44 -100q0 -116 72 -116l12 4v-8q-205 -112 -308 -112q-82 0 -88 92z" />
<glyph unicode="y" horiz-adv-x="1076" d="M30 -264q0 101 144 120q88 20 168 20q0 -99 60 -116h4q73 7 152 80q32 25 52 144l8 52h-4l-136 -8h-76q-241 8 -280 40q-32 19 -32 72v4q0 111 76 452q12 67 12 120v24q0 104 -68 104l-16 -4v8q210 112 308 112q82 0 88 -92q0 -116 -80 -472l-12 -108q0 -124 68 -124 q212 36 212 196q56 265 56 348v20q0 116 -68 116l-12 -4v4q192 116 304 116q88 -13 88 -80v-24q0 -87 -124 -704q-46 -329 -124 -416q-77 -104 -264 -104q-100 -12 -224 -12h-40q-240 0 -240 116z" />
<glyph unicode="z" horiz-adv-x="1036" d="M30 140q0 43 316 308q142 104 344 312q24 40 24 60v4q0 20 -60 20h-64l-368 -24q-19 0 -28 44q21 76 44 116h4q22 -28 144 -28q201 0 584 40q36 -12 36 -40v-28q0 -311 -492 -684l-84 -72h4q72 0 168 80q102 40 284 40l4 -4v-4q0 -57 -76 -156q-79 -88 -292 -88 q0 -7 -208 -12q-228 0 -276 84z" />
<glyph unicode="{" horiz-adv-x="804" d="M30 668v4l256 204l76 556q0 52 -40 52v8q100 52 144 52h16q147 -44 184 -44h16q21 0 24 12v20h8q60 -108 60 -136v-20q-5 -36 -36 -36q-27 0 -208 40h-4q-32 0 -32 -72l-84 -588h-8q0 16 -24 20q-43 0 -148 -88q156 -162 156 -196q-16 -126 -68 -384h4q112 -28 144 -28 t32 28v4q68 -87 68 -152v-4q-5 -36 -36 -36h-16l-192 40q-77 -40 -108 -40h-36q-28 12 -28 48l72 496q0 34 -192 240zM30 668v4l256 204l76 556q0 52 -40 52v8q100 52 144 52h16q147 -44 184 -44h16q21 0 24 12v20h8q60 -108 60 -136v-20q-5 -36 -36 -36q-27 0 -208 40h-4 q-32 0 -32 -72l-84 -588h-8q0 16 -24 20q-43 0 -148 -88q156 -162 156 -196q-16 -126 -68 -384h4q112 -28 144 -28t32 28v4q68 -87 68 -152v-4q-5 -36 -36 -36h-16l-192 40q-77 -40 -108 -40h-36q-28 12 -28 48l72 496q0 34 -192 240z" />
<glyph unicode="|" horiz-adv-x="428" d="M30 -72l108 744l104 752q0 60 -36 60h-4v8q101 52 144 52h16q36 -5 36 -36v-16l-76 -508l-136 -980q0 -60 36 -60h4v-8q-108 -56 -156 -56q-35 0 -40 48zM30 -72l108 744l104 752q0 60 -36 60h-4v8q101 52 144 52h16q36 -5 36 -36v-16l-76 -508l-136 -980q0 -60 36 -60h4 v-8q-108 -56 -156 -56q-35 0 -40 48z" />
<glyph unicode="}" horiz-adv-x="788" d="M30 36q5 44 44 44q27 0 196 -36h16q20 0 20 8l72 520h8q0 -20 28 -20q43 0 144 88q-156 163 -156 192l88 516h-4q-81 24 -140 32q-36 -4 -36 -16v-20h-8q-60 104 -60 148v8q0 33 40 36v4l196 -40q81 44 128 44h8q44 0 44 -44l-76 -508l-12 -88h8v-4q-12 -15 -12 -28 q0 -44 180 -236q9 0 12 -20l-256 -200q-56 -356 -56 -424v-4q6 -44 20 -44h20v-8q-97 -52 -144 -52h-8l-180 36l-28 4q-24 -8 -24 -16v-20h-8q-64 111 -64 148zM30 36q5 44 44 44q27 0 196 -36h16q20 0 20 8l72 520h8q0 -20 28 -20q43 0 144 88q-156 163 -156 192l88 516h-4 q-81 24 -140 32q-36 -4 -36 -16v-20h-8q-60 104 -60 148v8q0 33 40 36v4l196 -40q81 44 128 44h8q44 0 44 -44l-76 -508l-12 -88h8v-4q-12 -15 -12 -28q0 -44 180 -236q9 0 12 -20l-256 -200q-56 -356 -56 -424v-4q6 -44 20 -44h20v-8q-97 -52 -144 -52h-8l-180 36l-28 4 q-24 -8 -24 -16v-20h-8q-64 111 -64 148z" />
<glyph unicode="~" horiz-adv-x="892" d="M30 780q0 128 96 128q46 0 472 -84l108 -12h4q108 0 108 80h8q36 -141 36 -232v-28q0 -112 -92 -112q-48 0 -552 92l-40 4q-96 -12 -96 -64l-4 -20h-8q-40 155 -40 248zM30 780q0 128 96 128q46 0 472 -84l108 -12h4q108 0 108 80h8q36 -141 36 -232v-28q0 -112 -92 -112 q-48 0 -552 92l-40 4q-96 -12 -96 -64l-4 -20h-8q-40 155 -40 248z" />
<glyph unicode="&#xa1;" horiz-adv-x="682" />
<glyph unicode="&#xa2;" />
<glyph unicode="&#xa3;" />
<glyph unicode="&#xa4;" />
<glyph unicode="&#xa5;" />
<glyph unicode="&#xa6;" horiz-adv-x="532" />
<glyph unicode="&#xa7;" />
<glyph unicode="&#xa8;" horiz-adv-x="682" />
<glyph unicode="&#xa9;" horiz-adv-x="1509" />
<glyph unicode="&#xaa;" horiz-adv-x="758" />
<glyph unicode="&#xab;" />
<glyph unicode="&#xac;" horiz-adv-x="1196" />
<glyph unicode="&#xad;" horiz-adv-x="728" d="M30 764v8q0 35 56 40l480 -52q64 8 64 36v4h4q64 -87 64 -144v-8q0 -35 -52 -40l-480 52q-68 0 -68 -44h-8q-60 102 -60 148z" />
<glyph unicode="&#xae;" horiz-adv-x="1509" />
<glyph unicode="&#xaf;" horiz-adv-x="1131" />
<glyph unicode="&#xb0;" horiz-adv-x="819" />
<glyph unicode="&#xb1;" horiz-adv-x="1124" />
<glyph unicode="&#xb2;" horiz-adv-x="682" />
<glyph unicode="&#xb3;" horiz-adv-x="682" />
<glyph unicode="&#xb4;" horiz-adv-x="682" />
<glyph unicode="&#xb5;" horiz-adv-x="1180" />
<glyph unicode="&#xb6;" horiz-adv-x="1100" />
<glyph unicode="&#xb7;" horiz-adv-x="569" />
<glyph unicode="&#xb8;" horiz-adv-x="682" />
<glyph unicode="&#xb9;" horiz-adv-x="682" />
<glyph unicode="&#xba;" horiz-adv-x="748" />
<glyph unicode="&#xbb;" />
<glyph unicode="&#xbc;" horiz-adv-x="1708" />
<glyph unicode="&#xbd;" horiz-adv-x="1708" />
<glyph unicode="&#xbe;" horiz-adv-x="1708" />
<glyph unicode="&#xbf;" horiz-adv-x="1251" />
<glyph unicode="&#xc0;" horiz-adv-x="1366" />
<glyph unicode="&#xc1;" horiz-adv-x="1366" />
<glyph unicode="&#xc2;" horiz-adv-x="1366" />
<glyph unicode="&#xc3;" horiz-adv-x="1366" />
<glyph unicode="&#xc4;" horiz-adv-x="1366" />
<glyph unicode="&#xc5;" horiz-adv-x="1366" />
<glyph unicode="&#xc6;" horiz-adv-x="2048" />
<glyph unicode="&#xc7;" horiz-adv-x="1479" />
<glyph unicode="&#xc8;" horiz-adv-x="1366" />
<glyph unicode="&#xc9;" horiz-adv-x="1366" />
<glyph unicode="&#xca;" horiz-adv-x="1366" />
<glyph unicode="&#xcb;" horiz-adv-x="1366" />
<glyph unicode="&#xcc;" horiz-adv-x="569" />
<glyph unicode="&#xcd;" horiz-adv-x="569" />
<glyph unicode="&#xce;" horiz-adv-x="569" />
<glyph unicode="&#xcf;" horiz-adv-x="569" />
<glyph unicode="&#xd0;" horiz-adv-x="1479" />
<glyph unicode="&#xd1;" horiz-adv-x="1479" />
<glyph unicode="&#xd2;" horiz-adv-x="1593" />
<glyph unicode="&#xd3;" horiz-adv-x="1593" />
<glyph unicode="&#xd4;" horiz-adv-x="1593" />
<glyph unicode="&#xd5;" horiz-adv-x="1593" />
<glyph unicode="&#xd6;" horiz-adv-x="1593" />
<glyph unicode="&#xd7;" horiz-adv-x="1196" />
<glyph unicode="&#xd8;" horiz-adv-x="1593" />
<glyph unicode="&#xd9;" horiz-adv-x="1479" />
<glyph unicode="&#xda;" horiz-adv-x="1479" />
<glyph unicode="&#xdb;" horiz-adv-x="1479" />
<glyph unicode="&#xdc;" horiz-adv-x="1479" />
<glyph unicode="&#xdd;" horiz-adv-x="1366" />
<glyph unicode="&#xde;" horiz-adv-x="1366" />
<glyph unicode="&#xdf;" horiz-adv-x="1251" />
<glyph unicode="&#xe0;" />
<glyph unicode="&#xe1;" />
<glyph unicode="&#xe2;" />
<glyph unicode="&#xe3;" />
<glyph unicode="&#xe4;" />
<glyph unicode="&#xe5;" />
<glyph unicode="&#xe6;" horiz-adv-x="1821" />
<glyph unicode="&#xe7;" horiz-adv-x="1024" />
<glyph unicode="&#xe8;" />
<glyph unicode="&#xe9;" />
<glyph unicode="&#xea;" />
<glyph unicode="&#xeb;" />
<glyph unicode="&#xec;" horiz-adv-x="569" />
<glyph unicode="&#xed;" horiz-adv-x="569" />
<glyph unicode="&#xee;" horiz-adv-x="569" />
<glyph unicode="&#xef;" horiz-adv-x="569" />
<glyph unicode="&#xf0;" />
<glyph unicode="&#xf1;" />
<glyph unicode="&#xf2;" />
<glyph unicode="&#xf3;" />
<glyph unicode="&#xf4;" />
<glyph unicode="&#xf5;" />
<glyph unicode="&#xf6;" />
<glyph unicode="&#xf7;" horiz-adv-x="1124" />
<glyph unicode="&#xf8;" horiz-adv-x="1251" />
<glyph unicode="&#xf9;" />
<glyph unicode="&#xfa;" />
<glyph unicode="&#xfb;" />
<glyph unicode="&#xfc;" />
<glyph unicode="&#xfd;" horiz-adv-x="1024" />
<glyph unicode="&#xfe;" />
<glyph unicode="&#xff;" horiz-adv-x="1024" />
<glyph unicode="&#x152;" horiz-adv-x="2048" />
<glyph unicode="&#x153;" horiz-adv-x="1933" />
<glyph unicode="&#x178;" horiz-adv-x="1366" />
<glyph unicode="&#x2c6;" horiz-adv-x="682" />
<glyph unicode="&#x2dc;" horiz-adv-x="682" />
<glyph unicode="&#x2000;" horiz-adv-x="772" />
<glyph unicode="&#x2001;" horiz-adv-x="1544" />
<glyph unicode="&#x2002;" horiz-adv-x="772" />
<glyph unicode="&#x2003;" horiz-adv-x="1544" />
<glyph unicode="&#x2004;" horiz-adv-x="514" />
<glyph unicode="&#x2005;" horiz-adv-x="386" />
<glyph unicode="&#x2006;" horiz-adv-x="257" />
<glyph unicode="&#x2007;" horiz-adv-x="257" />
<glyph unicode="&#x2008;" horiz-adv-x="193" />
<glyph unicode="&#x2009;" horiz-adv-x="308" />
<glyph unicode="&#x200a;" horiz-adv-x="85" />
<glyph unicode="&#x2010;" horiz-adv-x="728" d="M30 764v8q0 35 56 40l480 -52q64 8 64 36v4h4q64 -87 64 -144v-8q0 -35 -52 -40l-480 52q-68 0 -68 -44h-8q-60 102 -60 148z" />
<glyph unicode="&#x2011;" horiz-adv-x="728" d="M30 764v8q0 35 56 40l480 -52q64 8 64 36v4h4q64 -87 64 -144v-8q0 -35 -52 -40l-480 52q-68 0 -68 -44h-8q-60 102 -60 148z" />
<glyph unicode="&#x2012;" horiz-adv-x="728" d="M30 764v8q0 35 56 40l480 -52q64 8 64 36v4h4q64 -87 64 -144v-8q0 -35 -52 -40l-480 52q-68 0 -68 -44h-8q-60 102 -60 148z" />
<glyph unicode="&#x2013;" />
<glyph unicode="&#x2014;" horiz-adv-x="2048" />
<glyph unicode="&#x2018;" horiz-adv-x="455" />
<glyph unicode="&#x2019;" horiz-adv-x="455" />
<glyph unicode="&#x201a;" horiz-adv-x="455" />
<glyph unicode="&#x201c;" horiz-adv-x="682" />
<glyph unicode="&#x201d;" horiz-adv-x="682" />
<glyph unicode="&#x201e;" horiz-adv-x="682" />
<glyph unicode="&#x2022;" horiz-adv-x="717" />
<glyph unicode="&#x2026;" horiz-adv-x="2048" />
<glyph unicode="&#x202f;" horiz-adv-x="308" />
<glyph unicode="&#x2039;" horiz-adv-x="682" />
<glyph unicode="&#x203a;" horiz-adv-x="682" />
<glyph unicode="&#x205f;" horiz-adv-x="386" />
<glyph unicode="&#x20ac;" />
<glyph unicode="&#x2122;" horiz-adv-x="2048" />
<glyph unicode="&#x25fc;" horiz-adv-x="960" d="M0 0v960h960v-960h-960z" />
</font>
</defs>
</svg>
